#!OML:ASF H:\Terrain\Patient Classification 1\Animal1\Tuesday\Animal1.ASF
:FULLY-SPECIFIED
:DEGREES
2320
root 14.2585 16.2895 -13.2163 -344.905 -5.3457 -0.672731
lowerback 9.49024 -1.26925 -3.77764
upperback 1.50985 -2.23011 -3.85523
thorax -3.76243 -1.07689 -1.60398
lowerneck 4.76553 1.13038 -9.4277
upperneck -15.9004 4.74808 26.7265
head -6.36242 1.05361 10.396
rclavicle 1.35174e-014 7.95139e-015
rhumerus 17.7026 -24.3794 -39.0816
rradius 108.517
rwrist 24.4454
rhand 14.2434 7.07902
rfingers 7.12502
rthumb 39.139 -18.401
lclavicle 1.35174e-014 7.95139e-015
lhumerus -18.0487 -21.9917 93.6302
lradius 99.8331
lwrist -49.3767
lhand 16.043 49.162
lfingers 7.12502
lthumb 40.8325 74.1314
rfemur -37.1319 13.2552 13.4864
rtibia 28.7782
rfoot 0.888699 -20.1496
rtoes -13.3763
lfemur -33.9409 -12.0444 -6.75041
ltibia 27.4034
lfoot -10.1893 14.9709
ltoes -21.6357
2321
root 14.2691 16.2887 -13.2071 -344.713 -5.01039 -1.15881
lowerback 9.52873 -1.32857 -3.52104
upperback 1.48773 -2.28018 -3.72299
thorax -3.81141 -1.1034 -1.60234
lowerneck 4.67216 1.08869 -9.27756
upperneck -15.8466 4.70452 26.7827
head -6.31784 1.02827 10.3867
rclavicle 5.56597e-015 1.43125e-014
rhumerus 15.1895 -25.2308 -38.2175
rradius 108.519
rwrist 24.5416
rhand 16.251 6.30447
rfingers 7.12502
rthumb 41.0279 -18.6031
lclavicle 5.56597e-015 1.43125e-014
lhumerus -18.1579 -22.0615 93.5173
lradius 99.7056
lwrist -49.4166
lhand 16.1519 49.3408
lfingers 7.12502
lthumb 40.9348 74.2779
rfemur -37.0646 13.4443 13.8742
rtibia 28.4752
rfoot 1.18865 -20.4012
rtoes -13.5623
lfemur -34.2361 -12.1309 -6.13728
ltibia 27.4881
lfoot -10.0854 14.8872
ltoes -20.8138
2322
root 14.2793 16.2979 -13.1927 -344.642 -4.67023 -1.26006
lowerback 9.48726 -1.42232 -3.59384
upperback 1.55982 -2.40303 -3.68608
thorax -3.70894 -1.16419 -1.50955
lowerneck 4.45124 0.992426 -9.64416
upperneck -15.6443 4.56809 27.2938
head -6.20078 0.979095 10.6589
rclavicle -7.63333e-014 -5.88403e-014
rhumerus 12.7175 -26.0239 -37.5085
rradius 108.365
rwrist 24.6468
rhand 17.9676 6.35696
rfingers 7.12502
rthumb 42.6373 -18.0159
lclavicle -7.63333e-014 -5.88403e-014
lhumerus -18.2079 -22.0261 93.3935
lradius 99.6774
lwrist -49.4249
lhand 16.5601 49.7718
lfingers 7.12502
lthumb 41.3181 74.5863
rfemur -36.8523 13.5002 13.8969
rtibia 28.2266
rfoot 1.23778 -20.7464
rtoes -13.4818
lfemur -34.349 -12.4014 -5.96463
ltibia 27.4752
lfoot -10.1531 14.8218
ltoes -20.0975
2323
root 14.2873 16.3081 -13.1777 -344.595 -4.4228 -1.08167
lowerback 9.49194 -1.44836 -3.96512
upperback 1.64307 -2.47319 -3.768
thorax -3.61285 -1.19601 -1.37959
lowerneck 4.3694 0.819837 -9.77221
upperneck -15.7046 4.37419 27.6623
head -6.17048 0.87192 10.8485
rclavicle -1.66979e-014 1.11319e-014
rhumerus 9.60907 -26.8411 -36.3914
rradius 108.376
rwrist 24.545
rhand 17.9918 6.38462
rfingers 7.12502
rthumb 42.6599 -17.9804
lclavicle -1.66979e-014 1.11319e-014
lhumerus -18.3753 -22.1666 93.2447
lradius 99.7728
lwrist -49.335
lhand 16.581 49.8373
lfingers 7.12502
lthumb 41.3377 74.6454
rfemur -36.6717 13.4857 13.6302
rtibia 28.0202
rfoot 0.9196 -21.0926
rtoes -12.5671
lfemur -34.3961 -12.695 -6.11793
ltibia 27.3561
lfoot -10.3031 14.7823
ltoes -20.1052
2324
root 14.2942 16.3169 -13.1627 -344.633 -4.30922 -0.933765
lowerback 9.71875 -1.43937 -4.354
upperback 1.68831 -2.51699 -3.86058
thorax -3.67916 -1.21228 -1.24819
lowerneck 4.45805 0.644198 -9.67684
upperneck -15.9463 4.20485 27.8556
head -6.22714 0.750856 10.935
rclavicle -1.98785e-014 -3.49861e-014
rhumerus 6.33085 -27.3517 -35.0716
rradius 108.713
rwrist 24.1079
rhand 18.1452 5.702
rfingers 7.12502
rthumb 42.8034 -18.613
lclavicle -1.98785e-014 -3.49861e-014
lhumerus -18.6416 -22.2847 93.0064
lradius 99.919
lwrist -49.2732
lhand 16.469 49.7655
lfingers 7.12502
lthumb 41.2326 74.6075
rfemur -36.4396 13.4452 13.4492
rtibia 27.8396
rfoot 0.685697 -21.2395
rtoes -12.1618
lfemur -34.2848 -12.9006 -6.29115
ltibia 27.2012
lfoot -10.5171 14.7129
ltoes -20.2274
2325
root 14.3013 16.3247 -13.1468 -344.623 -4.23703 -1.02695
lowerback 9.86959 -1.52438 -4.51789
upperback 1.69001 -2.65476 -3.81378
thorax -3.75033 -1.27659 -1.0866
lowerneck 4.40734 0.605349 -10.0287
upperneck -15.8386 4.14388 28.234
head -6.18253 0.72884 11.1579
rclavicle -4.77083e-015 2.38542e-014
rhumerus 3.44111 -27.2759 -33.9856
rradius 109.218
rwrist 23.3644
rhand 19.8371 4.82899
rfingers 7.12502
rthumb 44.3833 -18.9094
lclavicle -4.77083e-015 2.38542e-014
lhumerus -18.835 -21.9391 92.8217
lradius 99.995
lwrist -49.3334
lhand 16.4228 49.8633
lfingers 7.12502
lthumb 41.1892 74.7193
rfemur -36.2534 13.6582 13.4431
rtibia 27.6411
rfoot 0.822947 -21.4773
rtoes -12.276
lfemur -34.1733 -12.9708 -6.20951
ltibia 27.0888
lfoot -10.551 14.5825
ltoes -19.5879
2326
root 14.308 16.3287 -13.1334 -344.476 -4.09602 -1.37263
lowerback 9.82351 -1.65902 -4.44263
upperback 1.7167 -2.8119 -3.63349
thorax -3.68912 -1.35524 -0.922759
lowerneck 4.21077 0.650057 -10.4643
upperneck -15.6723 4.16872 28.4778
head -6.10848 0.775921 11.3333
rclavicle -2.54444e-014 3.65764e-014
rhumerus 0.836116 -27.0514 -33.1877
rradius 109.637
rwrist 22.9248
rhand 21.4801 4.78324
rfingers 7.12502
rthumb 45.9113 -18.3481
lclavicle -2.54444e-014 3.65764e-014
lhumerus -18.7829 -21.4032 92.7401
lradius 99.8907
lwrist -49.4676
lhand 16.6477 49.7877
lfingers 7.12502
lthumb 41.4003 74.5755
rfemur -36.192 14.0449 13.6274
rtibia 27.4116
rfoot 0.932014 -21.8366
rtoes -11.367
lfemur -34.2483 -12.9364 -5.81493
ltibia 27.0224
lfoot -10.4342 14.4488
ltoes -19.5265
2327
root 14.3169 16.3323 -13.1202 -344.404 -3.98416 -1.49681
lowerback 9.80731 -1.71182 -4.56273
upperback 1.81752 -2.88426 -3.58381
thorax -3.56515 -1.39203 -0.79734
lowerneck 4.12101 0.594483 -10.4078
upperneck -15.7576 4.11177 28.4725
head -6.10236 0.745205 11.3272
rclavicle -5.40694e-014 -7.95139e-015
rhumerus -1.91015 -26.9568 -32.462
rradius 109.97
rwrist 22.6703
rhand 21.4727 5.3488
rfingers 7.12502
rthumb 45.9045 -17.7854
lclavicle -5.40694e-014 -7.95139e-015
lhumerus -18.6379 -21.1871 92.611
lradius 99.6889
lwrist -49.6004
lhand 16.6844 49.6343
lfingers 7.12502
lthumb 41.4347 74.4109
rfemur -36.0767 14.294 13.6191
rtibia 27.1811
rfoot 0.718613 -22.1976
rtoes -10.1563
lfemur -34.3015 -13.0559 -5.65025
ltibia 26.9728
lfoot -10.6421 14.4064
ltoes -19.3059
2328
root 14.3269 16.3373 -13.1038 -344.414 -3.94806 -1.33858
lowerback 9.84641 -1.70111 -4.88995
upperback 1.83661 -2.91003 -3.70174
thorax -3.55638 -1.40172 -0.733819
lowerneck 4.34284 0.538885 -10.1346
upperneck -15.8142 4.06778 28.5028
head -6.1519 0.685161 11.2927
rclavicle 1.90833e-014 2.38542e-014
rhumerus -5.1065 -26.629 -31.5598
rradius 110.576
rwrist 21.8883
rhand 21.2628 5.38923
rfingers 7.12502
rthumb 45.7096 -17.8253
lclavicle 1.90833e-014 2.38542e-014
lhumerus -18.82 -21.1866 92.523
lradius 99.4966
lwrist -49.6507
lhand 16.1015 49.6259
lfingers 7.12502
lthumb 40.8875 74.5779
rfemur -35.9258 14.4857 13.3243
rtibia 26.9855
rfoot 0.71404 -22.5487
rtoes -10.1776
lfemur -34.2543 -13.3117 -5.80298
ltibia 26.9092
lfoot -10.7729 14.4922
ltoes -18.9239
2329
root 14.335 16.3439 -13.0854 -344.462 -3.83859 -1.27767
lowerback 9.91035 -1.66866 -5.02498
upperback 1.81838 -2.89193 -3.81811
thorax -3.61084 -1.39042 -0.779714
lowerneck 4.77844 0.481752 -9.96146
upperneck -15.9575 4.04642 28.6597
head -6.27968 0.615485 11.3404
rclavicle 2.94201e-014 7.95139e-015
rhumerus -8.48357 -26.1236 -30.6464
rradius 111.429
rwrist 20.7606
rhand 22.0347 4.89153
rfingers 7.12502
rthumb 46.4256 -18.0237
lclavicle 2.94201e-014 7.95139e-015
lhumerus -19.1425 -21.3009 92.537
lradius 99.3228
lwrist -49.6438
lhand 15.8827 49.633
lfingers 7.12502
lthumb 40.6819 74.6497
rfemur -35.6808 14.5426 13.2227
rtibia 26.8079
rfoot 0.917233 -22.7165
rtoes -10.8739
lfemur -34.12 -13.5256 -5.88391
ltibia 26.8151
lfoot -10.5748 14.5748
ltoes -19.2889
2330
root 14.343 16.3504 -13.0676 -344.362 -3.70454 -1.3624
lowerback 9.86879 -1.65244 -5.06876
upperback 1.85695 -2.86989 -3.84189
thorax -3.54697 -1.38064 -0.784836
lowerneck 4.72104 0.336105 -10.0079
upperneck -15.9423 3.87761 28.9991
head -6.23224 0.519515 11.4988
rclavicle 9.54166e-015 4.29375e-014
rhumerus -11.4857 -25.6273 -30.0436
rradius 112.209
rwrist 19.515
rhand 22.8655 4.40779
rfingers 7.12502
rthumb 47.1945 -18.1723
lclavicle 9.54166e-015 4.29375e-014
lhumerus -19.2513 -21.4162 92.4305
lradius 99.3106
lwrist -49.7783
lhand 16.4206 49.5178
lfingers 7.12502
lthumb 41.1871 74.3744
rfemur -35.5597 14.5086 13.2763
rtibia 26.6188
rfoot 0.788646 -22.8316
rtoes -10.4774
lfemur -34.1341 -13.6595 -5.77453
ltibia 26.7239
lfoot -10.436 14.6378
ltoes -18.7419
